#!OML:ASF H:\Not Pregnant\Project 1\Capture day 1\Session 1\non-pregnant.ASF
:FULLY-SPECIFIED
:DEGREES
2128
root -4.29486 15.6634 44.8068 -612.851 -85.876 625.253
lowerback -6.62901 1.89931 5.39181
upperback -9.64805 1.97687 -0.0410726
thorax -6.20757 0.440771 -3.00799
lowerneck 18.6404 -9.48195 -30.6325
upperneck -4.99457 -20.2408 39.3702
head 3.46422 -12.4591 19.3564
rclavicle -1.88845e-015 -4.17448e-015
rhumerus -38.4015 -9.47688 -81.403
rradius 28.5299
rwrist 23.6166
rhand -9.4262 6.1373
rfingers 7.12502
rthumb 16.5361 -23.1781
lclavicle -1.88845e-015 -4.17448e-015
lhumerus -47.2556 -0.872044 84.3656
lradius 31.1341
lwrist 30.7406
lhand -12.623 -11.9212
lfingers 7.12502
lthumb 13.4566 17.6241
rfemur -23.8996 -7.95849 26.4087
rtibia 31.9315
rfoot -22.318 13.5338
rtoes -10.0698
lfemur -25.852 8.0332 -19.3097
ltibia 34.2385
lfoot -22.8773 -12.8852
ltoes -8.82001
2129
root -4.29909 15.6638 44.8111 -613.863 -85.8705 626.226
lowerback -6.63256 1.88291 5.38698
upperback -9.63366 1.95634 -0.0220937
thorax -6.19245 0.432801 -2.98553
lowerneck 18.6281 -9.46126 -30.6258
upperneck -4.98414 -20.2085 39.3813
head 3.4571 -12.443 19.369
rclavicle 1.98785e-016 -1.19271e-015
rhumerus -38.4308 -9.12642 -81.5883
rradius 28.4003
rwrist 23.4723
rhand -9.39831 6.0264
rfingers 7.12502
rthumb 16.563 -23.2868
lclavicle 1.98785e-016 -1.19271e-015
lhumerus -47.056 -1.26124 84.4924
lradius 31.4396
lwrist 30.9369
lhand -12.99 -12.1993
lfingers 7.12502
lthumb 13.1029 17.369
rfemur -23.8486 -8.40948 26.4392
rtibia 31.9006
rfoot -22.3561 13.9989
rtoes -9.73637
lfemur -25.7949 8.09626 -19.3155
ltibia 34.2168
lfoot -22.8791 -13.0378
ltoes -8.67059
2130
root -4.30449 15.6644 44.8139 -614.573 -85.8711 626.905
lowerback -6.65719 1.87189 5.34483
upperback -9.61932 1.94222 -0.00123484
thorax -6.16553 0.430777 -2.93961
lowerneck 18.615 -9.44004 -30.6224
upperneck -4.96352 -20.1796 39.3943
head 3.45502 -12.429 19.3827
rclavicle 1.14301e-014 1.74931e-014
rhumerus -38.4712 -8.86985 -81.7091
rradius 28.2417
rwrist 23.4734
rhand -9.32214 6.00944
rfingers 7.12502
rthumb 16.6363 -23.2976
lclavicle 1.14301e-014 1.74931e-014
lhumerus -46.8535 -1.59517 84.5864
lradius 31.7347
lwrist 31.1227
lhand -13.4443 -12.4846
lfingers 7.12502
lthumb 12.6649 17.1114
rfemur -23.8002 -8.83651 26.4629
rtibia 31.8691
rfoot -22.3892 14.4587
rtoes -9.39162
lfemur -25.7398 8.19923 -19.3307
ltibia 34.1951
lfoot -22.8899 -13.2094
ltoes -8.5308
2131
root -4.31115 15.6651 44.8151 -615.034 -85.8611 627.34
lowerback -6.70576 1.86819 5.28848
upperback -9.6042 1.93635 0.0217356
thorax -6.12379 0.434165 -2.88278
lowerneck 18.6035 -9.42211 -30.6168
upperneck -4.93281 -20.1587 39.4051
head 3.45783 -12.419 19.3931
rclavicle 9.49197e-015 1.31198e-014
rhumerus -38.5246 -8.74342 -81.755
rradius 28.0543
rwrist 23.6569
rhand -9.17728 6.102
rfingers 7.12502
rthumb 16.7758 -23.1932
lclavicle 9.49197e-015 1.31198e-014
lhumerus -46.6445 -1.84325 84.6212
lradius 32.0182
lwrist 31.282
lhand -13.9813 -12.7751
lfingers 7.12502
lthumb 12.1471 16.8523
rfemur -23.7518 -9.20637 26.4959
rtibia 31.8374
rfoot -22.4146 14.8809
rtoes -9.04369
lfemur -25.688 8.34313 -19.3339
ltibia 34.1735
lfoot -22.9047 -13.4093
ltoes -8.36697
2132
root -4.31867 15.666 44.816 -615.312 -85.8526 627.607
lowerback -6.77995 1.86849 5.22558
upperback -9.59192 1.93377 0.0440991
thorax -6.07052 0.439546 -2.82226
lowerneck 18.5882 -9.40297 -30.6157
upperneck -4.88724 -20.1403 39.4142
head 3.46662 -12.4099 19.4028
rclavicle -3.77691e-015 2.38542e-015
rhumerus -38.5931 -8.69705 -81.7565
rradius 27.8509
rwrist 23.9139
rhand -9.0187 6.22878
rfingers 7.12502
rthumb 16.9284 -23.0535
lclavicle -3.77691e-015 2.38542e-015
lhumerus -46.4374 -2.04635 84.631
lradius 32.3015
lwrist 31.4681
lhand -14.5687 -13.0437
lfingers 7.12502
lthumb 11.5807 16.6163
rfemur -23.7171 -9.54404 26.5257
rtibia 31.8081
rfoot -22.4343 15.2836
rtoes -8.69672
lfemur -25.6502 8.52255 -19.3442
ltibia 34.1501
lfoot -22.918 -13.646
ltoes -8.16209
2133
root -4.32722 15.667 44.8165 -615.465 -85.8613 627.765
lowerback -6.88513 1.86906 5.13695
upperback -9.58174 1.92966 0.0643408
thorax -6.00262 0.445805 -2.74888
lowerneck 18.5735 -9.38393 -30.6187
upperneck -4.83078 -20.1259 39.4191
head 3.47955 -12.4024 19.4103
rclavicle 1.04113e-014 7.15625e-015
rhumerus -38.6748 -8.73246 -81.7181
rradius 27.6366
rwrist 24.2109
rhand -8.89873 6.32967
rfingers 7.12502
rthumb 17.0439 -22.9426
lclavicle 1.04113e-014 7.15625e-015
lhumerus -46.2322 -2.19867 84.6177
lradius 32.585
lwrist 31.687
lhand -15.1582 -13.2844
lfingers 7.12502
lthumb 11.0122 16.4067
rfemur -23.6977 -9.87266 26.539
rtibia 31.7832
rfoot -22.4532 15.6819
rtoes -8.34272
lfemur -25.6266 8.7517 -19.3802
ltibia 34.1248
lfoot -22.9317 -13.9453
ltoes -7.88014
2134
root -4.33634 15.6681 44.8172 -615.543 -85.8657 627.864
lowerback -7.01461 1.86931 5.0535
upperback -9.57737 1.923 0.0875243
thorax -5.92769 0.45016 -2.67482
lowerneck 18.5567 -9.36213 -30.6247
upperneck -4.75808 -20.1112 39.4165
head 3.49615 -12.3938 19.4145
rclavicle -6.95746e-016 -7.95139e-016
rhumerus -38.7719 -8.91402 -81.5845
rradius 27.3965
rwrist 24.7037
rhand -8.6947 6.53183
rfingers 7.12502
rthumb 17.2403 -22.7234
lclavicle -6.95746e-016 -7.95139e-016
lhumerus -46.0361 -2.30854 84.5874
lradius 32.8706
lwrist 31.9523
lhand -15.6828 -13.491
lfingers 7.12502
lthumb 10.5061 16.2264
rfemur -23.7007 -10.2059 26.5608
rtibia 31.7647
rfoot -22.4715 16.0962
rtoes -7.97376
lfemur -25.6225 9.01356 -19.4179
ltibia 34.0985
lfoot -22.9396 -14.285
ltoes -7.53441
2135
root -4.34591 15.6692 44.8186 -615.581 -85.8786 627.943
lowerback -7.16195 1.86951 4.97935
upperback -9.58294 1.91397 0.101367
thorax -5.85337 0.451655 -2.61546
lowerneck 18.5434 -9.33713 -30.6255
upperneck -4.66744 -20.0967 39.4093
head 3.51545 -12.3857 19.4162
rclavicle 1.26725e-014 -1.2921e-014
rhumerus -38.8917 -9.20825 -81.3809
rradius 27.1397
rwrist 25.3382
rhand -8.40846 6.83111
rfingers 7.12502
rthumb 17.5158 -22.3998
lclavicle 1.26725e-014 -1.2921e-014
lhumerus -45.8541 -2.39647 84.5401
lradius 33.1575
lwrist 32.2752
lhand -16.1001 -13.6541
lfingers 7.12502
lthumb 10.1036 16.0833
rfemur -23.7294 -10.5744 26.5781
rtibia 31.7529
rfoot -22.4896 16.5566
rtoes -7.56978
lfemur -25.6382 9.29019 -19.4734
ltibia 34.073
lfoot -22.9479 -14.6413
ltoes -7.17937
2136
root -4.35571 15.6703 44.8207 -615.555 -85.896 627.974
lowerback -7.33291 1.86801 4.90836
upperback -9.59381 1.90059 0.113753
thorax -5.7719 0.450368 -2.55901
lowerneck 18.5374 -9.30878 -30.6203
upperneck -4.56696 -20.0798 39.3941
head 3.53283 -12.3763 19.4141
rclavicle 5.06901e-015 6.36111e-015
rhumerus -39.0249 -9.58547 -81.1185
rradius 26.8706
rwrist 26.0797
rhand -8.07817 7.18481
rfingers 7.12502
rthumb 17.8336 -22.0175
lclavicle 5.06901e-015 6.36111e-015
lhumerus -45.6761 -2.43638 84.471
lradius 33.4354
lwrist 32.651
lhand -16.354 -13.7826
lfingers 7.12502
lthumb 9.85862 15.9666
rfemur -23.7825 -10.9689 26.5956
rtibia 31.7449
rfoot -22.5042 17.0516
rtoes -7.15013
lfemur -25.6736 9.55635 -19.5387
ltibia 34.052
lfoot -22.9525 -14.9861
ltoes -6.8153
2137
root -4.36557 15.6711 44.8235 -615.548 -85.8986 628.025
lowerback -7.50486 1.86934 4.8658
upperback -9.60587 1.88996 0.12227
thorax -5.69045 0.448336 -2.52244
lowerneck 18.542 -9.28394 -30.5994
upperneck -4.45634 -20.0702 39.3727
head 3.55085 -12.3713 19.4051
rclavicle 3.18055e-014 4.17448e-015
rhumerus -39.1697 -10.0004 -80.8377
rradius 26.597
rwrist 26.8271
rhand -7.73803 7.52415
rfingers 7.12502
rthumb 18.1609 -21.648
lclavicle 3.18055e-014 4.17448e-015
lhumerus -45.5003 -2.44711 84.3848
lradius 33.703
lwrist 33.0486
lhand -16.5797 -13.8774
lfingers 7.12502
lthumb 9.64091 15.882
rfemur -23.8393 -11.3782 26.6293
rtibia 31.7385
rfoot -22.5146 17.5684
rtoes -6.72247
lfemur -25.7107 9.79302 -19.587
ltibia 34.0369
lfoot -22.9568 -15.2921
ltoes -6.48219
2138
root -4.37534 15.6718 44.8267 -615.495 -85.8971 628.035
lowerback -7.68152 1.86982 4.83234
upperback -9.62252 1.87738 0.132525
thorax -5.61151 0.444398 -2.48917
lowerneck 18.5589 -9.25827 -30.5782
upperneck -4.33287 -20.066 39.3438
head 3.57091 -12.3695 19.3924
rclavicle -5.8393e-015 1.43125e-014
rhumerus -39.3222 -10.3621 -80.5816
rradius 26.3248
rwrist 27.4696
rhand -7.45009 7.79381
rfingers 7.12502
rthumb 18.4379 -21.3524
lclavicle -5.8393e-015 1.43125e-014
lhumerus -45.3305 -2.41983 84.2934
lradius 33.9548
lwrist 33.4556
lhand -16.7728 -13.9394
lfingers 7.12502
lthumb 9.45454 15.8285
rfemur -23.904 -11.7795 26.6686
rtibia 31.7304
rfoot -22.5242 18.0717
rtoes -6.34217
lfemur -25.7575 10.0171 -19.6332
ltibia 34.028
lfoot -22.9641 -15.573
ltoes -6.17833
